<mxfile host="Electron" modified="2024-11-16T03:25:48.130Z" agent="Mozilla/5.0 (Windows NT 10.0; Win64; x64) AppleWebKit/537.36 (KHTML, like Gecko) draw.io/24.6.4 Chrome/124.0.6367.207 Electron/30.0.6 Safari/537.36" etag="8_EcQNKGr9_58gppw13D" version="24.6.4" type="device" pages="2">
  <diagram name="Страница — 1" id="wqXx6HZkd2bfyDG6O0J_">
    <mxGraphModel dx="1050" dy="621" grid="1" gridSize="10" guides="1" tooltips="1" connect="1" arrows="1" fold="1" page="1" pageScale="1" pageWidth="827" pageHeight="1169" math="0" shadow="0">
      <root>
        <mxCell id="0" />
        <mxCell id="1" parent="0" />
        <mxCell id="cWGE_wNNnHL9LHC1gUun-1" value="Book" style="swimlane;fontStyle=1;align=center;verticalAlign=top;childLayout=stackLayout;horizontal=1;startSize=26;horizontalStack=0;resizeParent=1;resizeParentMax=0;resizeLast=0;collapsible=1;marginBottom=0;whiteSpace=wrap;html=1;" parent="1" vertex="1">
          <mxGeometry x="40" y="30" width="160" height="150" as="geometry" />
        </mxCell>
        <mxCell id="cWGE_wNNnHL9LHC1gUun-2" value="+ field: title" style="text;strokeColor=none;fillColor=none;align=left;verticalAlign=top;spacingLeft=4;spacingRight=4;overflow=hidden;rotatable=0;points=[[0,0.5],[1,0.5]];portConstraint=eastwest;whiteSpace=wrap;html=1;" parent="cWGE_wNNnHL9LHC1gUun-1" vertex="1">
          <mxGeometry y="26" width="160" height="26" as="geometry" />
        </mxCell>
        <mxCell id="cWGE_wNNnHL9LHC1gUun-8" value="+ field: author" style="text;strokeColor=none;fillColor=none;align=left;verticalAlign=top;spacingLeft=4;spacingRight=4;overflow=hidden;rotatable=0;points=[[0,0.5],[1,0.5]];portConstraint=eastwest;whiteSpace=wrap;html=1;" parent="cWGE_wNNnHL9LHC1gUun-1" vertex="1">
          <mxGeometry y="52" width="160" height="26" as="geometry" />
        </mxCell>
        <mxCell id="cWGE_wNNnHL9LHC1gUun-7" value="+ field: ISBN" style="text;strokeColor=none;fillColor=none;align=left;verticalAlign=top;spacingLeft=4;spacingRight=4;overflow=hidden;rotatable=0;points=[[0,0.5],[1,0.5]];portConstraint=eastwest;whiteSpace=wrap;html=1;" parent="cWGE_wNNnHL9LHC1gUun-1" vertex="1">
          <mxGeometry y="78" width="160" height="26" as="geometry" />
        </mxCell>
        <mxCell id="cWGE_wNNnHL9LHC1gUun-6" value="+ field: status((available/rented))" style="text;strokeColor=none;fillColor=none;align=left;verticalAlign=top;spacingLeft=4;spacingRight=4;overflow=hidden;rotatable=0;points=[[0,0.5],[1,0.5]];portConstraint=eastwest;whiteSpace=wrap;html=1;" parent="cWGE_wNNnHL9LHC1gUun-1" vertex="1">
          <mxGeometry y="104" width="160" height="46" as="geometry" />
        </mxCell>
        <mxCell id="cWGE_wNNnHL9LHC1gUun-25" style="edgeStyle=orthogonalEdgeStyle;rounded=0;orthogonalLoop=1;jettySize=auto;html=1;exitX=0;exitY=0.25;exitDx=0;exitDy=0;entryX=1;entryY=0.5;entryDx=0;entryDy=0;endArrow=classicThin;endFill=1;startArrow=diamondThin;startFill=0;" parent="1" source="cWGE_wNNnHL9LHC1gUun-9" target="cWGE_wNNnHL9LHC1gUun-6" edge="1">
          <mxGeometry relative="1" as="geometry">
            <mxPoint x="390" y="120" as="targetPoint" />
          </mxGeometry>
        </mxCell>
        <mxCell id="cWGE_wNNnHL9LHC1gUun-9" value="Reader" style="swimlane;fontStyle=1;align=center;verticalAlign=top;childLayout=stackLayout;horizontal=1;startSize=26;horizontalStack=0;resizeParent=1;resizeParentMax=0;resizeLast=0;collapsible=1;marginBottom=0;whiteSpace=wrap;html=1;" parent="1" vertex="1">
          <mxGeometry x="270" y="450" width="160" height="146" as="geometry" />
        </mxCell>
        <mxCell id="cWGE_wNNnHL9LHC1gUun-10" value="+ field: name" style="text;strokeColor=none;fillColor=none;align=left;verticalAlign=top;spacingLeft=4;spacingRight=4;overflow=hidden;rotatable=0;points=[[0,0.5],[1,0.5]];portConstraint=eastwest;whiteSpace=wrap;html=1;" parent="cWGE_wNNnHL9LHC1gUun-9" vertex="1">
          <mxGeometry y="26" width="160" height="26" as="geometry" />
        </mxCell>
        <mxCell id="cWGE_wNNnHL9LHC1gUun-11" value="+ field: list of rented books" style="text;strokeColor=none;fillColor=none;align=left;verticalAlign=top;spacingLeft=4;spacingRight=4;overflow=hidden;rotatable=0;points=[[0,0.5],[1,0.5]];portConstraint=eastwest;whiteSpace=wrap;html=1;" parent="cWGE_wNNnHL9LHC1gUun-9" vertex="1">
          <mxGeometry y="52" width="160" height="26" as="geometry" />
        </mxCell>
        <mxCell id="cWGE_wNNnHL9LHC1gUun-31" value="BorrowBook(book: Book): bool&amp;nbsp;" style="text;strokeColor=none;fillColor=none;align=left;verticalAlign=top;spacingLeft=4;spacingRight=4;overflow=hidden;rotatable=0;points=[[0,0.5],[1,0.5]];portConstraint=eastwest;whiteSpace=wrap;html=1;" parent="cWGE_wNNnHL9LHC1gUun-9" vertex="1">
          <mxGeometry y="78" width="160" height="42" as="geometry" />
        </mxCell>
        <mxCell id="cWGE_wNNnHL9LHC1gUun-30" value="ReturnBook(book: Book)" style="text;strokeColor=none;fillColor=none;align=left;verticalAlign=top;spacingLeft=4;spacingRight=4;overflow=hidden;rotatable=0;points=[[0,0.5],[1,0.5]];portConstraint=eastwest;whiteSpace=wrap;html=1;" parent="cWGE_wNNnHL9LHC1gUun-9" vertex="1">
          <mxGeometry y="120" width="160" height="26" as="geometry" />
        </mxCell>
        <mxCell id="cWGE_wNNnHL9LHC1gUun-26" style="edgeStyle=orthogonalEdgeStyle;rounded=0;orthogonalLoop=1;jettySize=auto;html=1;exitX=0;exitY=0.25;exitDx=0;exitDy=0;entryX=1;entryY=0.25;entryDx=0;entryDy=0;endArrow=none;endFill=0;" parent="1" source="cWGE_wNNnHL9LHC1gUun-16" target="cWGE_wNNnHL9LHC1gUun-21" edge="1">
          <mxGeometry relative="1" as="geometry" />
        </mxCell>
        <mxCell id="cWGE_wNNnHL9LHC1gUun-16" value="&lt;div style=&quot;&quot;&gt;&lt;b style=&quot;background-color: initial;&quot;&gt;&lt;span style=&quot;line-height: 107%; font-family: &amp;quot;Times New Roman&amp;quot;, serif;&quot; lang=&quot;EN-US&quot;&gt;&lt;font style=&quot;font-size: 16px;&quot;&gt;Librarian&lt;/font&gt;&lt;/span&gt;&lt;/b&gt;&lt;/div&gt;&lt;span style=&quot;font-size:14.0pt;line-height:107%;font-family:&amp;quot;Times New Roman&amp;quot;,serif;&lt;br/&gt;mso-fareast-font-family:Calibri;mso-fareast-theme-font:minor-latin;mso-ansi-language:&lt;br/&gt;EN-US;mso-fareast-language:EN-US;mso-bidi-language:AR-SA;mso-bidi-font-style:&lt;br/&gt;italic&quot; lang=&quot;EN-US&quot;&gt;&lt;/span&gt;" style="swimlane;fontStyle=1;align=center;verticalAlign=top;childLayout=stackLayout;horizontal=1;startSize=26;horizontalStack=0;resizeParent=1;resizeParentMax=0;resizeLast=0;collapsible=1;marginBottom=0;whiteSpace=wrap;html=1;" parent="1" vertex="1">
          <mxGeometry x="520" y="398" width="160" height="52" as="geometry" />
        </mxCell>
        <mxCell id="cWGE_wNNnHL9LHC1gUun-17" value="+ field: name" style="text;strokeColor=none;fillColor=none;align=left;verticalAlign=top;spacingLeft=4;spacingRight=4;overflow=hidden;rotatable=0;points=[[0,0.5],[1,0.5]];portConstraint=eastwest;whiteSpace=wrap;html=1;" parent="cWGE_wNNnHL9LHC1gUun-16" vertex="1">
          <mxGeometry y="26" width="160" height="26" as="geometry" />
        </mxCell>
        <mxCell id="cWGE_wNNnHL9LHC1gUun-24" style="edgeStyle=orthogonalEdgeStyle;rounded=0;orthogonalLoop=1;jettySize=auto;html=1;exitX=0;exitY=0.25;exitDx=0;exitDy=0;entryX=1;entryY=0.5;entryDx=0;entryDy=0;endArrow=blockThin;endFill=1;startArrow=diamondThin;startFill=1;strokeColor=#FAFAFA;" parent="1" source="cWGE_wNNnHL9LHC1gUun-21" target="cWGE_wNNnHL9LHC1gUun-2" edge="1">
          <mxGeometry relative="1" as="geometry" />
        </mxCell>
        <mxCell id="cWGE_wNNnHL9LHC1gUun-21" value="&lt;div style=&quot;text-align: left;&quot;&gt;&lt;b&gt;&lt;span style=&quot;line-height: 107%; font-family: &amp;quot;Times New Roman&amp;quot;, serif;&quot; lang=&quot;EN-US&quot;&gt;&lt;font style=&quot;font-size: 17px;&quot;&gt;Library&lt;/font&gt;&lt;/span&gt;&lt;/b&gt;&lt;span style=&quot;font-size:14.0pt;line-height:107%;font-family:&amp;quot;Times New Roman&amp;quot;,serif;&lt;br/&gt;mso-fareast-font-family:Calibri;mso-fareast-theme-font:minor-latin;mso-ansi-language:&lt;br/&gt;EN-US;mso-fareast-language:EN-US;mso-bidi-language:AR-SA;mso-bidi-font-style:&lt;br/&gt;italic&quot; lang=&quot;EN-US&quot;&gt;&lt;/span&gt;&lt;br&gt;&lt;/div&gt;&lt;span style=&quot;font-size:14.0pt;line-height:107%;font-family:&amp;quot;Times New Roman&amp;quot;,serif;&lt;br/&gt;mso-fareast-font-family:Calibri;mso-fareast-theme-font:minor-latin;mso-ansi-language:&lt;br/&gt;EN-US;mso-fareast-language:EN-US;mso-bidi-language:AR-SA;mso-bidi-font-style:&lt;br/&gt;italic&quot; lang=&quot;EN-US&quot;&gt;&lt;/span&gt;" style="swimlane;fontStyle=1;align=center;verticalAlign=top;childLayout=stackLayout;horizontal=1;startSize=26;horizontalStack=0;resizeParent=1;resizeParentMax=0;resizeLast=0;collapsible=1;marginBottom=0;whiteSpace=wrap;html=1;" parent="1" vertex="1">
          <mxGeometry x="310" y="280" width="160" height="140" as="geometry" />
        </mxCell>
        <mxCell id="cWGE_wNNnHL9LHC1gUun-22" value="+ field: list of books" style="text;strokeColor=none;fillColor=none;align=left;verticalAlign=top;spacingLeft=4;spacingRight=4;overflow=hidden;rotatable=0;points=[[0,0.5],[1,0.5]];portConstraint=eastwest;whiteSpace=wrap;html=1;" parent="cWGE_wNNnHL9LHC1gUun-21" vertex="1">
          <mxGeometry y="26" width="160" height="26" as="geometry" />
        </mxCell>
        <mxCell id="cWGE_wNNnHL9LHC1gUun-27" value="+ AddBook(book: Book)&amp;nbsp;" style="text;strokeColor=none;fillColor=none;align=left;verticalAlign=top;spacingLeft=4;spacingRight=4;overflow=hidden;rotatable=0;points=[[0,0.5],[1,0.5]];portConstraint=eastwest;whiteSpace=wrap;html=1;" parent="cWGE_wNNnHL9LHC1gUun-21" vertex="1">
          <mxGeometry y="52" width="160" height="26" as="geometry" />
        </mxCell>
        <mxCell id="cWGE_wNNnHL9LHC1gUun-28" value="+RemoveBook(book: Book)" style="text;strokeColor=none;fillColor=none;align=left;verticalAlign=top;spacingLeft=4;spacingRight=4;overflow=hidden;rotatable=0;points=[[0,0.5],[1,0.5]];portConstraint=eastwest;whiteSpace=wrap;html=1;" parent="cWGE_wNNnHL9LHC1gUun-21" vertex="1">
          <mxGeometry y="78" width="160" height="26" as="geometry" />
        </mxCell>
        <mxCell id="cWGE_wNNnHL9LHC1gUun-29" value="SearchBooks(query: &lt;span class=&quot;hljs-built_in&quot;&gt;string&lt;/span&gt;): List&amp;lt;Book&amp;gt;" style="text;strokeColor=none;fillColor=none;align=left;verticalAlign=top;spacingLeft=4;spacingRight=4;overflow=hidden;rotatable=0;points=[[0,0.5],[1,0.5]];portConstraint=eastwest;whiteSpace=wrap;html=1;" parent="cWGE_wNNnHL9LHC1gUun-21" vertex="1">
          <mxGeometry y="104" width="160" height="36" as="geometry" />
        </mxCell>
      </root>
    </mxGraphModel>
  </diagram>
  <diagram id="T4SQtkFlKjzSyhAdaaog" name="Страница — 2">
    <mxGraphModel dx="2442" dy="955" grid="1" gridSize="10" guides="1" tooltips="1" connect="1" arrows="1" fold="1" page="1" pageScale="1" pageWidth="827" pageHeight="1169" math="0" shadow="0">
      <root>
        <mxCell id="0" />
        <mxCell id="1" parent="0" />
        <mxCell id="2AwS7G53mEEQsgobXgS5-9" value="" style="group" parent="1" vertex="1" connectable="0">
          <mxGeometry x="360" y="10" width="320" height="320" as="geometry" />
        </mxCell>
        <mxCell id="Y7lKZa2Z6mg2ExQ0MVfJ-1" value="" style="group" vertex="1" connectable="0" parent="2AwS7G53mEEQsgobXgS5-9">
          <mxGeometry width="320" height="250" as="geometry" />
        </mxCell>
        <mxCell id="2AwS7G53mEEQsgobXgS5-1" value="&amp;nbsp;UI (User Interface)&amp;nbsp; &amp;nbsp;&amp;nbsp;" style="html=1;whiteSpace=wrap;" parent="Y7lKZa2Z6mg2ExQ0MVfJ-1" vertex="1">
          <mxGeometry width="320" height="80" as="geometry" />
        </mxCell>
        <mxCell id="2AwS7G53mEEQsgobXgS5-2" value="" style="shape=table;startSize=0;container=1;collapsible=0;childLayout=tableLayout;" parent="Y7lKZa2Z6mg2ExQ0MVfJ-1" vertex="1">
          <mxGeometry y="80" width="320" height="170" as="geometry" />
        </mxCell>
        <mxCell id="2AwS7G53mEEQsgobXgS5-3" value="" style="shape=tableRow;horizontal=0;startSize=0;swimlaneHead=0;swimlaneBody=0;strokeColor=inherit;top=0;left=0;bottom=0;right=0;collapsible=0;dropTarget=0;fillColor=none;points=[[0,0.5],[1,0.5]];portConstraint=eastwest;" parent="2AwS7G53mEEQsgobXgS5-2" vertex="1">
          <mxGeometry width="320" height="50" as="geometry" />
        </mxCell>
        <mxCell id="2AwS7G53mEEQsgobXgS5-4" value="Консольное приложение&amp;nbsp;" style="shape=partialRectangle;html=1;whiteSpace=wrap;connectable=0;strokeColor=inherit;overflow=hidden;fillColor=none;top=0;left=0;bottom=0;right=0;pointerEvents=1;" parent="2AwS7G53mEEQsgobXgS5-3" vertex="1">
          <mxGeometry width="320" height="50" as="geometry">
            <mxRectangle width="320" height="50" as="alternateBounds" />
          </mxGeometry>
        </mxCell>
        <mxCell id="2AwS7G53mEEQsgobXgS5-5" value="" style="shape=tableRow;horizontal=0;startSize=0;swimlaneHead=0;swimlaneBody=0;strokeColor=inherit;top=0;left=0;bottom=0;right=0;collapsible=0;dropTarget=0;fillColor=none;points=[[0,0.5],[1,0.5]];portConstraint=eastwest;" parent="2AwS7G53mEEQsgobXgS5-2" vertex="1">
          <mxGeometry y="50" width="320" height="40" as="geometry" />
        </mxCell>
        <mxCell id="2AwS7G53mEEQsgobXgS5-6" value="Взаимодействует с" style="shape=partialRectangle;html=1;whiteSpace=wrap;connectable=0;strokeColor=inherit;overflow=hidden;fillColor=none;top=0;left=0;bottom=0;right=0;pointerEvents=1;" parent="2AwS7G53mEEQsgobXgS5-5" vertex="1">
          <mxGeometry width="320" height="40" as="geometry">
            <mxRectangle width="320" height="40" as="alternateBounds" />
          </mxGeometry>
        </mxCell>
        <mxCell id="2AwS7G53mEEQsgobXgS5-7" style="shape=tableRow;horizontal=0;startSize=0;swimlaneHead=0;swimlaneBody=0;strokeColor=inherit;top=0;left=0;bottom=0;right=0;collapsible=0;dropTarget=0;fillColor=none;points=[[0,0.5],[1,0.5]];portConstraint=eastwest;" parent="2AwS7G53mEEQsgobXgS5-2" vertex="1">
          <mxGeometry y="90" width="320" height="80" as="geometry" />
        </mxCell>
        <mxCell id="2AwS7G53mEEQsgobXgS5-8" value="&lt;div style=&quot;&quot;&gt;&lt;span style=&quot;background-color: initial;&quot;&gt;IHotelService&lt;/span&gt;&lt;/div&gt;&lt;div style=&quot;&quot;&gt;&lt;span style=&quot;background-color: initial;&quot;&gt;IBookingService&lt;/span&gt;&lt;/div&gt;&lt;div style=&quot;&quot;&gt;&lt;span style=&quot;background-color: initial;&quot;&gt;IPaymentService&lt;/span&gt;&lt;/div&gt;&lt;div style=&quot;&quot;&gt;&lt;span style=&quot;background-color: initial;&quot;&gt;INotificationService&lt;/span&gt;&lt;/div&gt;&lt;div style=&quot;&quot;&gt;&lt;span style=&quot;background-color: initial;&quot;&gt;&amp;nbsp; &amp;nbsp; &amp;nbsp; &amp;nbsp; &amp;nbsp; IUserManagementService&lt;/span&gt;&lt;span style=&quot;background-color: initial;&quot;&gt;&amp;nbsp; &amp;nbsp; &amp;nbsp; &amp;nbsp;&lt;/span&gt;&lt;/div&gt;" style="shape=partialRectangle;html=1;whiteSpace=wrap;connectable=0;strokeColor=inherit;overflow=hidden;fillColor=none;top=0;left=0;bottom=0;right=0;pointerEvents=1;align=center;" parent="2AwS7G53mEEQsgobXgS5-7" vertex="1">
          <mxGeometry width="320" height="80" as="geometry">
            <mxRectangle width="320" height="80" as="alternateBounds" />
          </mxGeometry>
        </mxCell>
        <mxCell id="Y7lKZa2Z6mg2ExQ0MVfJ-2" style="edgeStyle=orthogonalEdgeStyle;rounded=0;orthogonalLoop=1;jettySize=auto;html=1;exitX=0.5;exitY=0;exitDx=0;exitDy=0;entryX=0;entryY=0.5;entryDx=0;entryDy=0;" edge="1" parent="1" source="2AwS7G53mEEQsgobXgS5-10" target="2AwS7G53mEEQsgobXgS5-7">
          <mxGeometry relative="1" as="geometry" />
        </mxCell>
        <mxCell id="2AwS7G53mEEQsgobXgS5-10" value="IHotelService              " style="swimlane;fontStyle=1;align=center;verticalAlign=top;childLayout=stackLayout;horizontal=1;startSize=26;horizontalStack=0;resizeParent=1;resizeParentMax=0;resizeLast=0;collapsible=1;marginBottom=0;whiteSpace=wrap;html=1;" parent="1" vertex="1">
          <mxGeometry x="-250" y="340" width="320" height="86" as="geometry" />
        </mxCell>
        <mxCell id="2AwS7G53mEEQsgobXgS5-11" value="Поиск отелей по критериям  " style="text;strokeColor=none;fillColor=none;align=left;verticalAlign=top;spacingLeft=4;spacingRight=4;overflow=hidden;rotatable=0;points=[[0,0.5],[1,0.5]];portConstraint=eastwest;whiteSpace=wrap;html=1;" parent="2AwS7G53mEEQsgobXgS5-10" vertex="1">
          <mxGeometry y="26" width="320" height="26" as="geometry" />
        </mxCell>
        <mxCell id="2AwS7G53mEEQsgobXgS5-12" value="" style="line;strokeWidth=1;fillColor=none;align=left;verticalAlign=middle;spacingTop=-1;spacingLeft=3;spacingRight=3;rotatable=0;labelPosition=right;points=[];portConstraint=eastwest;strokeColor=inherit;" parent="2AwS7G53mEEQsgobXgS5-10" vertex="1">
          <mxGeometry y="52" width="320" height="8" as="geometry" />
        </mxCell>
        <mxCell id="2AwS7G53mEEQsgobXgS5-13" value="Получение информации о гостиницах" style="text;strokeColor=none;fillColor=none;align=left;verticalAlign=top;spacingLeft=4;spacingRight=4;overflow=hidden;rotatable=0;points=[[0,0.5],[1,0.5]];portConstraint=eastwest;whiteSpace=wrap;html=1;" parent="2AwS7G53mEEQsgobXgS5-10" vertex="1">
          <mxGeometry y="60" width="320" height="26" as="geometry" />
        </mxCell>
        <mxCell id="Y7lKZa2Z6mg2ExQ0MVfJ-6" style="edgeStyle=orthogonalEdgeStyle;rounded=0;orthogonalLoop=1;jettySize=auto;html=1;exitX=0.5;exitY=0;exitDx=0;exitDy=0;" edge="1" parent="1" source="2AwS7G53mEEQsgobXgS5-14">
          <mxGeometry relative="1" as="geometry">
            <mxPoint x="-120" y="440" as="targetPoint" />
          </mxGeometry>
        </mxCell>
        <mxCell id="2AwS7G53mEEQsgobXgS5-14" value="HotelService                             " style="swimlane;fontStyle=1;align=center;verticalAlign=top;childLayout=stackLayout;horizontal=1;startSize=26;horizontalStack=0;resizeParent=1;resizeParentMax=0;resizeLast=0;collapsible=1;marginBottom=0;whiteSpace=wrap;html=1;" parent="1" vertex="1">
          <mxGeometry x="-250" y="520" width="320" height="86" as="geometry" />
        </mxCell>
        <mxCell id="2AwS7G53mEEQsgobXgS5-15" value="Управление отелями   " style="text;strokeColor=none;fillColor=none;align=left;verticalAlign=top;spacingLeft=4;spacingRight=4;overflow=hidden;rotatable=0;points=[[0,0.5],[1,0.5]];portConstraint=eastwest;whiteSpace=wrap;html=1;" parent="2AwS7G53mEEQsgobXgS5-14" vertex="1">
          <mxGeometry y="26" width="320" height="26" as="geometry" />
        </mxCell>
        <mxCell id="2AwS7G53mEEQsgobXgS5-16" value="" style="line;strokeWidth=1;fillColor=none;align=left;verticalAlign=middle;spacingTop=-1;spacingLeft=3;spacingRight=3;rotatable=0;labelPosition=right;points=[];portConstraint=eastwest;strokeColor=inherit;" parent="2AwS7G53mEEQsgobXgS5-14" vertex="1">
          <mxGeometry y="52" width="320" height="8" as="geometry" />
        </mxCell>
        <mxCell id="2AwS7G53mEEQsgobXgS5-17" value="Добавление, удаление, редактирование отелей" style="text;strokeColor=none;fillColor=none;align=left;verticalAlign=top;spacingLeft=4;spacingRight=4;overflow=hidden;rotatable=0;points=[[0,0.5],[1,0.5]];portConstraint=eastwest;whiteSpace=wrap;html=1;" parent="2AwS7G53mEEQsgobXgS5-14" vertex="1">
          <mxGeometry y="60" width="320" height="26" as="geometry" />
        </mxCell>
        <mxCell id="Y7lKZa2Z6mg2ExQ0MVfJ-3" style="edgeStyle=orthogonalEdgeStyle;rounded=0;orthogonalLoop=1;jettySize=auto;html=1;exitX=0.5;exitY=0;exitDx=0;exitDy=0;entryX=0;entryY=0.5;entryDx=0;entryDy=0;" edge="1" parent="1" source="2AwS7G53mEEQsgobXgS5-18" target="2AwS7G53mEEQsgobXgS5-7">
          <mxGeometry relative="1" as="geometry" />
        </mxCell>
        <mxCell id="2AwS7G53mEEQsgobXgS5-18" value="IBookingService                                         " style="swimlane;fontStyle=1;align=center;verticalAlign=top;childLayout=stackLayout;horizontal=1;startSize=26;horizontalStack=0;resizeParent=1;resizeParentMax=0;resizeLast=0;collapsible=1;marginBottom=0;whiteSpace=wrap;html=1;" parent="1" vertex="1">
          <mxGeometry x="160" y="340" width="320" height="86" as="geometry" />
        </mxCell>
        <mxCell id="2AwS7G53mEEQsgobXgS5-19" value="Проверка доступности номеров   " style="text;strokeColor=none;fillColor=none;align=left;verticalAlign=top;spacingLeft=4;spacingRight=4;overflow=hidden;rotatable=0;points=[[0,0.5],[1,0.5]];portConstraint=eastwest;whiteSpace=wrap;html=1;" parent="2AwS7G53mEEQsgobXgS5-18" vertex="1">
          <mxGeometry y="26" width="320" height="26" as="geometry" />
        </mxCell>
        <mxCell id="2AwS7G53mEEQsgobXgS5-20" value="" style="line;strokeWidth=1;fillColor=none;align=left;verticalAlign=middle;spacingTop=-1;spacingLeft=3;spacingRight=3;rotatable=0;labelPosition=right;points=[];portConstraint=eastwest;strokeColor=inherit;" parent="2AwS7G53mEEQsgobXgS5-18" vertex="1">
          <mxGeometry y="52" width="320" height="8" as="geometry" />
        </mxCell>
        <mxCell id="2AwS7G53mEEQsgobXgS5-21" value="Осуществление бронирования" style="text;strokeColor=none;fillColor=none;align=left;verticalAlign=top;spacingLeft=4;spacingRight=4;overflow=hidden;rotatable=0;points=[[0,0.5],[1,0.5]];portConstraint=eastwest;whiteSpace=wrap;html=1;" parent="2AwS7G53mEEQsgobXgS5-18" vertex="1">
          <mxGeometry y="60" width="320" height="26" as="geometry" />
        </mxCell>
        <mxCell id="Y7lKZa2Z6mg2ExQ0MVfJ-7" style="edgeStyle=orthogonalEdgeStyle;rounded=0;orthogonalLoop=1;jettySize=auto;html=1;exitX=0.5;exitY=0;exitDx=0;exitDy=0;" edge="1" parent="1" source="2AwS7G53mEEQsgobXgS5-22">
          <mxGeometry relative="1" as="geometry">
            <mxPoint x="300" y="440" as="targetPoint" />
          </mxGeometry>
        </mxCell>
        <mxCell id="2AwS7G53mEEQsgobXgS5-22" value="BookingService                                                      " style="swimlane;fontStyle=1;align=center;verticalAlign=top;childLayout=stackLayout;horizontal=1;startSize=26;horizontalStack=0;resizeParent=1;resizeParentMax=0;resizeLast=0;collapsible=1;marginBottom=0;whiteSpace=wrap;html=1;" parent="1" vertex="1">
          <mxGeometry x="160" y="520" width="320" height="86" as="geometry" />
        </mxCell>
        <mxCell id="2AwS7G53mEEQsgobXgS5-23" value="Логика бронирования номеров     " style="text;strokeColor=none;fillColor=none;align=left;verticalAlign=top;spacingLeft=4;spacingRight=4;overflow=hidden;rotatable=0;points=[[0,0.5],[1,0.5]];portConstraint=eastwest;whiteSpace=wrap;html=1;" parent="2AwS7G53mEEQsgobXgS5-22" vertex="1">
          <mxGeometry y="26" width="320" height="26" as="geometry" />
        </mxCell>
        <mxCell id="2AwS7G53mEEQsgobXgS5-24" value="" style="line;strokeWidth=1;fillColor=none;align=left;verticalAlign=middle;spacingTop=-1;spacingLeft=3;spacingRight=3;rotatable=0;labelPosition=right;points=[];portConstraint=eastwest;strokeColor=inherit;" parent="2AwS7G53mEEQsgobXgS5-22" vertex="1">
          <mxGeometry y="52" width="320" height="8" as="geometry" />
        </mxCell>
        <mxCell id="2AwS7G53mEEQsgobXgS5-25" value="Хранение данных о бронированиях" style="text;strokeColor=none;fillColor=none;align=left;verticalAlign=top;spacingLeft=4;spacingRight=4;overflow=hidden;rotatable=0;points=[[0,0.5],[1,0.5]];portConstraint=eastwest;whiteSpace=wrap;html=1;" parent="2AwS7G53mEEQsgobXgS5-22" vertex="1">
          <mxGeometry y="60" width="320" height="26" as="geometry" />
        </mxCell>
        <mxCell id="Y7lKZa2Z6mg2ExQ0MVfJ-4" style="edgeStyle=orthogonalEdgeStyle;rounded=0;orthogonalLoop=1;jettySize=auto;html=1;exitX=0.5;exitY=0;exitDx=0;exitDy=0;entryX=1;entryY=0.5;entryDx=0;entryDy=0;" edge="1" parent="1" source="2AwS7G53mEEQsgobXgS5-26" target="2AwS7G53mEEQsgobXgS5-7">
          <mxGeometry relative="1" as="geometry" />
        </mxCell>
        <mxCell id="2AwS7G53mEEQsgobXgS5-26" value="IPaymentService                                                                  " style="swimlane;fontStyle=1;align=center;verticalAlign=top;childLayout=stackLayout;horizontal=1;startSize=26;horizontalStack=0;resizeParent=1;resizeParentMax=0;resizeLast=0;collapsible=1;marginBottom=0;whiteSpace=wrap;html=1;" parent="1" vertex="1">
          <mxGeometry x="560" y="340" width="320" height="86" as="geometry" />
        </mxCell>
        <mxCell id="2AwS7G53mEEQsgobXgS5-27" value="Обработка платежей      " style="text;strokeColor=none;fillColor=none;align=left;verticalAlign=top;spacingLeft=4;spacingRight=4;overflow=hidden;rotatable=0;points=[[0,0.5],[1,0.5]];portConstraint=eastwest;whiteSpace=wrap;html=1;" parent="2AwS7G53mEEQsgobXgS5-26" vertex="1">
          <mxGeometry y="26" width="320" height="26" as="geometry" />
        </mxCell>
        <mxCell id="2AwS7G53mEEQsgobXgS5-28" value="" style="line;strokeWidth=1;fillColor=none;align=left;verticalAlign=middle;spacingTop=-1;spacingLeft=3;spacingRight=3;rotatable=0;labelPosition=right;points=[];portConstraint=eastwest;strokeColor=inherit;" parent="2AwS7G53mEEQsgobXgS5-26" vertex="1">
          <mxGeometry y="52" width="320" height="8" as="geometry" />
        </mxCell>
        <mxCell id="2AwS7G53mEEQsgobXgS5-29" value="Подтверждение оплаты " style="text;strokeColor=none;fillColor=none;align=left;verticalAlign=top;spacingLeft=4;spacingRight=4;overflow=hidden;rotatable=0;points=[[0,0.5],[1,0.5]];portConstraint=eastwest;whiteSpace=wrap;html=1;" parent="2AwS7G53mEEQsgobXgS5-26" vertex="1">
          <mxGeometry y="60" width="320" height="26" as="geometry" />
        </mxCell>
        <mxCell id="Y7lKZa2Z6mg2ExQ0MVfJ-8" style="edgeStyle=orthogonalEdgeStyle;rounded=0;orthogonalLoop=1;jettySize=auto;html=1;exitX=0.5;exitY=0;exitDx=0;exitDy=0;" edge="1" parent="1" source="2AwS7G53mEEQsgobXgS5-30">
          <mxGeometry relative="1" as="geometry">
            <mxPoint x="680" y="440" as="targetPoint" />
          </mxGeometry>
        </mxCell>
        <mxCell id="2AwS7G53mEEQsgobXgS5-30" value="PaymentService                                                                               " style="swimlane;fontStyle=1;align=center;verticalAlign=top;childLayout=stackLayout;horizontal=1;startSize=26;horizontalStack=0;resizeParent=1;resizeParentMax=0;resizeLast=0;collapsible=1;marginBottom=0;whiteSpace=wrap;html=1;" parent="1" vertex="1">
          <mxGeometry x="560" y="520" width="320" height="86" as="geometry" />
        </mxCell>
        <mxCell id="2AwS7G53mEEQsgobXgS5-31" value="Интеграция с платежными системами      " style="text;strokeColor=none;fillColor=none;align=left;verticalAlign=top;spacingLeft=4;spacingRight=4;overflow=hidden;rotatable=0;points=[[0,0.5],[1,0.5]];portConstraint=eastwest;whiteSpace=wrap;html=1;" parent="2AwS7G53mEEQsgobXgS5-30" vertex="1">
          <mxGeometry y="26" width="320" height="26" as="geometry" />
        </mxCell>
        <mxCell id="2AwS7G53mEEQsgobXgS5-32" value="" style="line;strokeWidth=1;fillColor=none;align=left;verticalAlign=middle;spacingTop=-1;spacingLeft=3;spacingRight=3;rotatable=0;labelPosition=right;points=[];portConstraint=eastwest;strokeColor=inherit;" parent="2AwS7G53mEEQsgobXgS5-30" vertex="1">
          <mxGeometry y="52" width="320" height="8" as="geometry" />
        </mxCell>
        <mxCell id="2AwS7G53mEEQsgobXgS5-33" value="Проверка оплаты  " style="text;strokeColor=none;fillColor=none;align=left;verticalAlign=top;spacingLeft=4;spacingRight=4;overflow=hidden;rotatable=0;points=[[0,0.5],[1,0.5]];portConstraint=eastwest;whiteSpace=wrap;html=1;" parent="2AwS7G53mEEQsgobXgS5-30" vertex="1">
          <mxGeometry y="60" width="320" height="26" as="geometry" />
        </mxCell>
        <mxCell id="Y7lKZa2Z6mg2ExQ0MVfJ-5" style="edgeStyle=orthogonalEdgeStyle;rounded=0;orthogonalLoop=1;jettySize=auto;html=1;exitX=0.5;exitY=0;exitDx=0;exitDy=0;entryX=1;entryY=0.5;entryDx=0;entryDy=0;" edge="1" parent="1" source="2AwS7G53mEEQsgobXgS5-34" target="2AwS7G53mEEQsgobXgS5-7">
          <mxGeometry relative="1" as="geometry" />
        </mxCell>
        <mxCell id="2AwS7G53mEEQsgobXgS5-34" value="INotificationService                                                                               " style="swimlane;fontStyle=1;align=center;verticalAlign=top;childLayout=stackLayout;horizontal=1;startSize=26;horizontalStack=0;resizeParent=1;resizeParentMax=0;resizeLast=0;collapsible=1;marginBottom=0;whiteSpace=wrap;html=1;" parent="1" vertex="1">
          <mxGeometry x="990" y="340" width="320" height="86" as="geometry" />
        </mxCell>
        <mxCell id="2AwS7G53mEEQsgobXgS5-35" value="Отправка уведомлений пользователю      " style="text;strokeColor=none;fillColor=none;align=left;verticalAlign=top;spacingLeft=4;spacingRight=4;overflow=hidden;rotatable=0;points=[[0,0.5],[1,0.5]];portConstraint=eastwest;whiteSpace=wrap;html=1;" parent="2AwS7G53mEEQsgobXgS5-34" vertex="1">
          <mxGeometry y="26" width="320" height="26" as="geometry" />
        </mxCell>
        <mxCell id="2AwS7G53mEEQsgobXgS5-36" value="" style="line;strokeWidth=1;fillColor=none;align=left;verticalAlign=middle;spacingTop=-1;spacingLeft=3;spacingRight=3;rotatable=0;labelPosition=right;points=[];portConstraint=eastwest;strokeColor=inherit;" parent="2AwS7G53mEEQsgobXgS5-34" vertex="1">
          <mxGeometry y="52" width="320" height="8" as="geometry" />
        </mxCell>
        <mxCell id="2AwS7G53mEEQsgobXgS5-37" value="Напоминания о бронированиях  " style="text;strokeColor=none;fillColor=none;align=left;verticalAlign=top;spacingLeft=4;spacingRight=4;overflow=hidden;rotatable=0;points=[[0,0.5],[1,0.5]];portConstraint=eastwest;whiteSpace=wrap;html=1;" parent="2AwS7G53mEEQsgobXgS5-34" vertex="1">
          <mxGeometry y="60" width="320" height="26" as="geometry" />
        </mxCell>
        <mxCell id="Y7lKZa2Z6mg2ExQ0MVfJ-9" style="edgeStyle=orthogonalEdgeStyle;rounded=0;orthogonalLoop=1;jettySize=auto;html=1;exitX=0.5;exitY=0;exitDx=0;exitDy=0;" edge="1" parent="1" source="2AwS7G53mEEQsgobXgS5-38">
          <mxGeometry relative="1" as="geometry">
            <mxPoint x="1120" y="440" as="targetPoint" />
          </mxGeometry>
        </mxCell>
        <mxCell id="2AwS7G53mEEQsgobXgS5-38" value="NotificationService                                                                                       " style="swimlane;fontStyle=1;align=center;verticalAlign=top;childLayout=stackLayout;horizontal=1;startSize=26;horizontalStack=0;resizeParent=1;resizeParentMax=0;resizeLast=0;collapsible=1;marginBottom=0;whiteSpace=wrap;html=1;" parent="1" vertex="1">
          <mxGeometry x="1000" y="510" width="320" height="86" as="geometry" />
        </mxCell>
        <mxCell id="2AwS7G53mEEQsgobXgS5-39" value="Отправка сообщений и уведомлений      " style="text;strokeColor=none;fillColor=none;align=left;verticalAlign=top;spacingLeft=4;spacingRight=4;overflow=hidden;rotatable=0;points=[[0,0.5],[1,0.5]];portConstraint=eastwest;whiteSpace=wrap;html=1;" parent="2AwS7G53mEEQsgobXgS5-38" vertex="1">
          <mxGeometry y="26" width="320" height="26" as="geometry" />
        </mxCell>
        <mxCell id="2AwS7G53mEEQsgobXgS5-40" value="" style="line;strokeWidth=1;fillColor=none;align=left;verticalAlign=middle;spacingTop=-1;spacingLeft=3;spacingRight=3;rotatable=0;labelPosition=right;points=[];portConstraint=eastwest;strokeColor=inherit;" parent="2AwS7G53mEEQsgobXgS5-38" vertex="1">
          <mxGeometry y="52" width="320" height="8" as="geometry" />
        </mxCell>
        <mxCell id="2AwS7G53mEEQsgobXgS5-41" value="Отправка напоминаний  " style="text;strokeColor=none;fillColor=none;align=left;verticalAlign=top;spacingLeft=4;spacingRight=4;overflow=hidden;rotatable=0;points=[[0,0.5],[1,0.5]];portConstraint=eastwest;whiteSpace=wrap;html=1;" parent="2AwS7G53mEEQsgobXgS5-38" vertex="1">
          <mxGeometry y="60" width="320" height="26" as="geometry" />
        </mxCell>
        <mxCell id="Y7lKZa2Z6mg2ExQ0MVfJ-11" style="edgeStyle=orthogonalEdgeStyle;rounded=0;orthogonalLoop=1;jettySize=auto;html=1;exitX=0.5;exitY=0;exitDx=0;exitDy=0;entryX=1;entryY=0.5;entryDx=0;entryDy=0;" edge="1" parent="1" source="2AwS7G53mEEQsgobXgS5-42" target="2AwS7G53mEEQsgobXgS5-7">
          <mxGeometry relative="1" as="geometry" />
        </mxCell>
        <mxCell id="2AwS7G53mEEQsgobXgS5-42" value="IUserManagementService                                                                                            " style="swimlane;fontStyle=1;align=center;verticalAlign=top;childLayout=stackLayout;horizontal=1;startSize=26;horizontalStack=0;resizeParent=1;resizeParentMax=0;resizeLast=0;collapsible=1;marginBottom=0;whiteSpace=wrap;html=1;" parent="1" vertex="1">
          <mxGeometry x="1370" y="340" width="320" height="86" as="geometry" />
        </mxCell>
        <mxCell id="2AwS7G53mEEQsgobXgS5-43" value="Регистрация и авторизация      " style="text;strokeColor=none;fillColor=none;align=left;verticalAlign=top;spacingLeft=4;spacingRight=4;overflow=hidden;rotatable=0;points=[[0,0.5],[1,0.5]];portConstraint=eastwest;whiteSpace=wrap;html=1;" parent="2AwS7G53mEEQsgobXgS5-42" vertex="1">
          <mxGeometry y="26" width="320" height="26" as="geometry" />
        </mxCell>
        <mxCell id="2AwS7G53mEEQsgobXgS5-44" value="" style="line;strokeWidth=1;fillColor=none;align=left;verticalAlign=middle;spacingTop=-1;spacingLeft=3;spacingRight=3;rotatable=0;labelPosition=right;points=[];portConstraint=eastwest;strokeColor=inherit;" parent="2AwS7G53mEEQsgobXgS5-42" vertex="1">
          <mxGeometry y="52" width="320" height="8" as="geometry" />
        </mxCell>
        <mxCell id="2AwS7G53mEEQsgobXgS5-45" value="Управление данными пользователей  " style="text;strokeColor=none;fillColor=none;align=left;verticalAlign=top;spacingLeft=4;spacingRight=4;overflow=hidden;rotatable=0;points=[[0,0.5],[1,0.5]];portConstraint=eastwest;whiteSpace=wrap;html=1;" parent="2AwS7G53mEEQsgobXgS5-42" vertex="1">
          <mxGeometry y="60" width="320" height="26" as="geometry" />
        </mxCell>
        <mxCell id="Y7lKZa2Z6mg2ExQ0MVfJ-10" style="edgeStyle=orthogonalEdgeStyle;rounded=0;orthogonalLoop=1;jettySize=auto;html=1;exitX=0.5;exitY=0;exitDx=0;exitDy=0;" edge="1" parent="1" source="2AwS7G53mEEQsgobXgS5-46">
          <mxGeometry relative="1" as="geometry">
            <mxPoint x="1520" y="440" as="targetPoint" />
          </mxGeometry>
        </mxCell>
        <mxCell id="2AwS7G53mEEQsgobXgS5-46" value="UserManagementService                                                                                                  " style="swimlane;fontStyle=1;align=center;verticalAlign=top;childLayout=stackLayout;horizontal=1;startSize=26;horizontalStack=0;resizeParent=1;resizeParentMax=0;resizeLast=0;collapsible=1;marginBottom=0;whiteSpace=wrap;html=1;" parent="1" vertex="1">
          <mxGeometry x="1370" y="520" width="320" height="112" as="geometry" />
        </mxCell>
        <mxCell id="2AwS7G53mEEQsgobXgS5-47" value="Управление учетными записями      " style="text;strokeColor=none;fillColor=none;align=left;verticalAlign=top;spacingLeft=4;spacingRight=4;overflow=hidden;rotatable=0;points=[[0,0.5],[1,0.5]];portConstraint=eastwest;whiteSpace=wrap;html=1;" parent="2AwS7G53mEEQsgobXgS5-46" vertex="1">
          <mxGeometry y="26" width="320" height="26" as="geometry" />
        </mxCell>
        <mxCell id="2AwS7G53mEEQsgobXgS5-48" value="" style="line;strokeWidth=1;fillColor=none;align=left;verticalAlign=middle;spacingTop=-1;spacingLeft=3;spacingRight=3;rotatable=0;labelPosition=right;points=[];portConstraint=eastwest;strokeColor=inherit;" parent="2AwS7G53mEEQsgobXgS5-46" vertex="1">
          <mxGeometry y="52" width="320" height="8" as="geometry" />
        </mxCell>
        <mxCell id="2AwS7G53mEEQsgobXgS5-49" value="Обработка запросов на регистрацию  " style="text;strokeColor=none;fillColor=none;align=left;verticalAlign=top;spacingLeft=4;spacingRight=4;overflow=hidden;rotatable=0;points=[[0,0.5],[1,0.5]];portConstraint=eastwest;whiteSpace=wrap;html=1;" parent="2AwS7G53mEEQsgobXgS5-46" vertex="1">
          <mxGeometry y="60" width="320" height="26" as="geometry" />
        </mxCell>
        <mxCell id="2AwS7G53mEEQsgobXgS5-50" value="Подтверждение входа пользователей" style="text;strokeColor=none;fillColor=none;align=left;verticalAlign=top;spacingLeft=4;spacingRight=4;overflow=hidden;rotatable=0;points=[[0,0.5],[1,0.5]];portConstraint=eastwest;whiteSpace=wrap;html=1;" parent="2AwS7G53mEEQsgobXgS5-46" vertex="1">
          <mxGeometry y="86" width="320" height="26" as="geometry" />
        </mxCell>
      </root>
    </mxGraphModel>
  </diagram>
</mxfile>
